<?xml version="1.0" standalone="no"?>
<!DOCTYPE svg PUBLIC "-//W3C//DTD SVG 20010904//EN"
 "http://www.w3.org/TR/2001/REC-SVG-20010904/DTD/svg10.dtd">
<svg version="1.0" xmlns="http://www.w3.org/2000/svg"
 width="640.000000pt" height="640.000000pt" viewBox="0 0 640.000000 640.000000"
 preserveAspectRatio="xMidYMid meet">
<metadata>
Created by potrace 1.14, written by Peter Selinger 2001-2017
</metadata>
<g transform="translate(0.000000,640.000000) scale(0.100000,-0.100000)"
fill="#000000" stroke="none">
<path d="M0 3573 l0 -2828 54 90 c116 193 266 310 566 443 36 16 94 42 130 58
36 16 94 44 130 63 36 18 126 65 200 102 74 38 162 84 195 102 33 19 80 41
105 51 25 10 59 24 75 31 87 39 129 55 142 55 30 0 215 85 225 103 5 10 11 28
14 40 2 12 8 23 14 25 28 10 -7 114 -85 252 -88 156 -144 269 -189 380 -26 63
-53 129 -60 145 -23 52 -60 213 -70 305 -4 30 -13 83 -21 117 -8 34 -19 113
-26 175 -6 62 -15 123 -20 136 -5 13 -9 38 -9 56 0 19 -18 93 -41 167 -35 114
-41 145 -41 224 0 104 17 151 57 161 46 11 49 30 10 59 -26 21 -35 35 -35 58
0 17 -8 70 -17 118 l-17 89 22 23 c21 22 22 30 16 109 -7 84 -12 93 -41 75 -7
-5 -13 -4 -13 2 0 5 -6 16 -12 23 -7 8 -20 27 -28 43 -9 17 -23 31 -32 33 -14
3 -15 0 -5 -22 6 -13 16 -24 21 -23 6 1 12 -6 14 -15 5 -24 -21 -23 -43 2 -10
11 -22 20 -28 20 -5 0 -22 9 -38 21 -29 20 -34 21 -127 9 -117 -15 -151 -6
-152 37 0 68 -13 134 -24 130 -25 -9 -84 -27 -140 -41 -52 -13 -62 -14 -87 0
-29 15 -39 8 -18 -13 21 -21 -2 -33 -64 -33 -34 0 -69 -4 -77 -10 -23 -14 -40
8 -40 52 0 22 -5 48 -10 58 -9 16 -6 22 17 33 16 8 46 20 68 27 22 7 47 18 55
25 8 8 45 25 82 39 37 13 76 29 86 35 22 12 22 9 -15 164 -12 54 -13 73 -4 93
10 23 9 26 -9 31 -11 3 -22 15 -24 27 -4 21 -14 69 -42 196 -15 70 -21 222
-10 258 15 46 97 20 175 -55 55 -53 65 -88 35 -118 -18 -18 -11 -50 10 -42 8
3 16 -2 19 -14 6 -23 -14 -69 -30 -69 -6 0 -18 -8 -25 -17 -17 -24 -66 -29
-74 -9 -10 26 -22 18 -33 -21 -8 -30 -8 -41 4 -52 12 -12 16 -11 26 12 15 32
30 23 60 -35 28 -55 52 -51 47 7 -3 46 6 60 17 26 3 -10 15 -27 26 -37 19 -17
20 -17 26 4 4 16 13 22 34 22 25 0 29 -4 29 -27 1 -16 7 -41 16 -58 13 -28 14
-26 9 49 -3 43 -5 94 -5 112 0 25 -4 32 -15 28 -12 -5 -13 -1 -3 27 6 19 15
39 19 45 5 6 13 54 19 108 18 178 53 271 137 366 7 8 35 60 63 115 56 114 123
195 162 195 34 0 97 -23 144 -52 53 -33 74 -40 68 -24 -3 8 -28 26 -56 41 -28
15 -74 47 -104 71 l-54 44 -665 0 -665 0 0 -2827z m850 1975 c11 -18 20 -39
20 -45 0 -23 -18 -14 -28 15 -5 15 -13 35 -17 45 -12 29 4 19 25 -15z"/>
<path d="M3300 6327 c115 -67 295 -182 330 -212 8 -7 30 -17 49 -24 19 -6 42
-17 50 -25 9 -7 41 -18 71 -24 242 -44 286 -54 293 -67 4 -8 26 -35 47 -61 22
-25 40 -50 40 -56 0 -7 14 -8 38 -4 109 17 411 -74 546 -164 186 -125 238
-241 317 -715 40 -239 15 -516 -66 -735 -7 -19 -28 -82 -46 -140 -18 -58 -40
-114 -49 -125 -9 -11 -24 -56 -33 -100 -9 -44 -35 -147 -58 -230 -51 -186 -60
-219 -99 -376 -46 -191 -97 -338 -136 -397 -19 -29 -61 -73 -93 -98 -86 -66
-86 -74 -36 -510 2 -23 61 -114 74 -114 5 0 24 -11 43 -24 40 -26 123 -49 243
-66 44 -6 100 -17 125 -25 45 -13 144 -35 255 -56 33 -6 73 -18 88 -26 15 -8
55 -16 88 -18 33 -3 68 -9 77 -14 9 -5 78 -14 152 -21 208 -18 302 -39 500
-108 51 -17 257 -117 277 -134 11 -9 13 400 13 2366 l0 2376 -1612 0 -1613 0
125 -73z"/>
<path d="M2462 6313 c-24 -3 -32 -9 -30 -21 4 -24 -99 -46 -123 -25 -21 17
-99 16 -174 -3 -33 -8 -75 -19 -93 -24 -46 -11 -50 -18 -16 -25 16 -4 34 -8
39 -9 6 -2 -6 -10 -25 -19 -46 -21 -196 -24 -216 -4 -3 3 -21 -1 -39 -9 -42
-17 -172 -16 -202 2 -17 11 -23 11 -32 0 -6 -7 -8 -16 -4 -19 3 -4 2 -7 -4 -7
-6 0 -13 -12 -16 -27 -22 -120 -51 -197 -82 -223 -9 -7 -13 -20 -10 -28 3 -9
0 -19 -6 -23 -7 -4 -12 -22 -13 -40 -1 -19 -6 -43 -12 -54 -7 -11 -15 -40 -19
-65 -4 -25 -18 -68 -31 -97 -13 -28 -24 -58 -24 -67 0 -8 -13 -48 -29 -88 -21
-51 -26 -75 -18 -80 8 -5 2 -29 -20 -80 -38 -90 -53 -151 -53 -220 l0 -53 53
118 c28 64 64 131 80 148 15 17 27 28 27 25 0 -3 -23 -61 -50 -128 -49 -118
-93 -285 -94 -357 -1 -43 14 -52 144 -81 144 -32 179 -72 194 -225 4 -38 20
-108 37 -155 16 -46 29 -94 29 -105 0 -12 5 -26 11 -32 14 -14 -37 -56 -118
-95 -55 -28 -63 -34 -61 -57 3 -23 0 -26 -23 -23 -15 1 -32 -4 -38 -12 -7 -8
-19 -12 -27 -9 -10 4 -14 -3 -14 -25 0 -21 19 -54 70 -120 39 -51 76 -95 83
-99 7 -5 18 -24 24 -43 30 -92 47 -135 54 -140 4 -3 18 -27 33 -53 27 -51 40
-126 51 -297 13 -199 16 -227 30 -297 8 -40 15 -81 15 -92 0 -10 15 -59 32
-107 31 -85 33 -87 38 -54 l5 35 28 -65 c15 -36 27 -76 27 -89 0 -13 22 -69
49 -125 250 -518 243 -500 261 -695 8 -83 11 -223 8 -374 -6 -279 0 -330 62
-517 44 -134 73 -190 114 -229 34 -32 36 -5 2 36 -55 66 -93 170 -131 358 -27
128 -29 210 -10 330 11 72 14 338 4 357 -8 14 -7 28 1 49 13 29 30 31 30 2 0
-21 29 -42 58 -43 24 0 32 34 10 43 -7 3 -2 6 12 6 25 1 65 -33 65 -55 0 -18
96 -107 150 -139 27 -17 76 -44 109 -60 32 -17 61 -37 63 -46 5 -16 43 -39 65
-39 7 0 -1 14 -17 30 -30 31 -24 40 11 16 11 -8 38 -18 60 -22 21 -4 44 -14
51 -23 6 -9 26 -16 44 -16 36 0 64 -29 42 -43 -10 -7 -10 -11 0 -24 16 -21
133 -33 140 -15 4 11 21 13 70 8 5 -1 1 -8 -7 -17 -24 -24 -20 -32 21 -40 37
-7 37 -7 15 -22 -12 -8 -22 -21 -22 -28 0 -8 -7 -14 -15 -14 -8 0 -24 -9 -35
-20 -11 -11 -30 -20 -42 -20 -12 0 -18 -3 -14 -7 4 -4 43 -8 87 -10 44 -1 104
-7 132 -12 31 -7 78 -8 117 -3 53 6 73 4 108 -11 23 -10 61 -21 85 -25 33 -6
43 -12 45 -30 2 -13 14 -27 27 -32 13 -5 26 -14 30 -20 5 -8 10 -8 20 0 9 8
17 7 28 -5 14 -14 19 -9 47 49 34 72 55 95 44 49 -4 -15 -22 -68 -41 -118 -67
-173 -65 -188 7 -42 44 89 46 92 80 93 25 1 42 -6 60 -23 14 -14 32 -22 42
-20 14 4 18 -1 18 -20 0 -20 4 -24 20 -20 11 3 23 1 26 -4 11 -19 34 -9 34 16
0 14 5 25 11 25 6 0 8 -8 4 -19 -3 -11 -2 -22 4 -25 6 -4 5 -19 -2 -41 -8 -27
-7 -41 3 -60 16 -29 23 -31 44 -9 9 8 20 12 26 9 6 -3 17 1 26 9 24 24 30 19
30 -26 0 -23 6 -44 12 -46 8 -2 7 -13 -4 -35 -12 -26 -4 -20 42 28 62 66 161
200 189 255 9 19 28 50 42 68 13 18 23 40 22 50 -3 37 1 53 13 46 8 -5 9 -2 4
11 -4 10 -3 21 1 24 20 15 46 65 35 69 -7 2 -12 8 -12 13 0 6 5 7 10 4 6 -3
12 0 14 7 3 13 52 173 66 218 12 35 38 204 44 272 l4 57 -52 15 c-28 9 -89 18
-136 20 -47 3 -101 9 -120 15 -19 6 -45 11 -57 11 -21 0 -21 -1 -6 -30 8 -17
18 -28 22 -25 5 2 6 -6 4 -19 -3 -12 1 -29 9 -37 8 -8 14 -44 16 -89 4 -94 14
-117 58 -122 22 -3 34 0 34 8 0 12 55 13 67 0 11 -11 23 -7 23 9 0 8 5 15 10
15 6 0 10 -6 10 -14 0 -7 11 -25 25 -40 l24 -26 -22 -76 c-12 -42 -26 -74 -32
-72 -5 1 -8 14 -6 28 2 20 1 22 -11 12 -8 -6 -18 -8 -22 -4 -4 4 -5 -5 -1 -20
10 -40 -24 -46 -74 -12 -30 20 -41 34 -41 53 l-1 26 -13 -30 c-7 -16 -20 -69
-30 -117 -21 -98 -29 -113 -68 -122 -22 -5 -28 -3 -28 9 0 9 -5 13 -10 10 -6
-4 -8 -10 -5 -14 2 -5 -4 -16 -15 -26 -11 -10 -17 -21 -15 -25 3 -4 -4 -18
-14 -31 -10 -13 -16 -30 -13 -38 3 -8 -1 -19 -9 -25 -17 -14 -39 -52 -44 -77
-2 -10 -8 -27 -14 -36 -9 -15 -10 -12 -11 17 0 20 7 45 15 57 8 12 12 28 9 36
-3 8 1 21 9 28 18 17 11 144 -9 174 -17 23 -18 79 -3 106 6 11 7 34 4 51 l-7
31 -20 -32 c-11 -17 -23 -29 -28 -26 -4 3 -11 -10 -15 -28 -6 -31 -7 -31 -17
-9 -6 12 -17 22 -24 22 -21 0 -44 65 -34 97 14 49 22 63 31 57 5 -3 9 4 9 15
0 10 3 28 6 38 5 15 4 16 -5 3 -9 -12 -11 -2 -10 40 2 142 -1 173 -17 191 -15
16 -16 41 -4 84 1 6 1 28 0 50 l-2 40 -9 -40 c-11 -43 -29 -70 -29 -42 0 12
-13 4 -43 -28 -24 -25 -51 -45 -60 -45 -9 0 -19 -5 -22 -10 -4 -7 -13 -6 -26
1 -23 12 -19 37 14 81 23 30 20 38 -12 41 -11 1 -21 5 -21 10 0 12 37 65 73
103 59 64 120 236 137 391 6 56 22 133 34 171 13 39 27 96 30 129 8 76 32 157
53 179 16 15 17 15 24 -4 4 -11 10 -101 13 -199 5 -183 21 -345 34 -370 5 -8
7 123 6 291 l-2 306 21 4 c12 3 51 10 86 15 36 6 85 21 110 33 69 34 81 67
118 321 7 47 -2 47 -23 -1 -9 -20 -18 -31 -21 -24 -3 9 -13 5 -30 -14 -13 -14
-27 -23 -30 -20 -4 4 18 32 49 64 46 46 59 67 70 112 10 43 19 58 41 68 20 10
27 20 27 42 0 17 7 33 17 39 25 14 43 105 33 168 -10 60 -36 116 -51 107 -15
-9 -56 37 -64 74 -8 38 -30 52 -81 52 -36 0 -37 1 -20 19 11 12 13 21 7 25 -7
4 -3 18 9 38 10 17 17 35 14 40 -8 13 6 49 17 43 15 -10 10 12 -11 48 -16 27
-20 48 -17 86 2 27 -1 55 -6 60 -20 20 9 12 38 -10 21 -17 26 -28 23 -50 -3
-20 0 -29 9 -29 25 0 28 -1 51 -16 17 -11 22 -12 22 -2 0 7 10 18 23 23 19 9
23 19 27 81 3 39 11 78 18 86 7 9 12 20 11 24 -1 5 -1 18 0 29 1 17 3 18 11 5
5 -8 10 -54 10 -102 0 -94 11 -138 35 -138 9 0 16 -10 16 -27 3 -46 5 -57 13
-76 7 -15 12 -9 26 31 10 28 21 73 25 102 9 64 26 61 43 -9 12 -47 11 -55 -3
-71 -12 -13 -14 -23 -7 -36 17 -30 26 5 30 111 2 70 0 96 -7 85 -9 -13 -13
-13 -28 3 -17 17 -17 19 0 31 20 16 37 66 37 113 0 26 -4 33 -20 33 -24 0 -46
36 -32 53 6 7 9 41 8 77 -2 55 -5 65 -20 65 -28 0 -40 32 -27 75 6 21 8 45 5
54 -3 9 -1 16 5 16 7 0 11 21 11 55 0 51 12 72 23 43 4 -9 6 -8 6 2 2 32 -26
112 -72 209 -7 13 -25 37 -41 53 -16 16 -26 31 -23 34 10 10 -15 64 -29 64 -8
0 -14 6 -14 14 0 8 -7 16 -15 20 -8 3 -15 13 -15 21 0 19 -15 35 -51 54 -17 8
-25 19 -22 30 2 10 -6 20 -22 28 -14 6 -25 7 -25 2 0 -5 7 -12 15 -15 8 -4 15
-10 15 -15 0 -15 -93 -2 -200 29 -75 21 -129 30 -188 31 -91 2 -109 -3 -91
-25 7 -8 7 -14 1 -14 -15 0 -33 26 -36 52 -1 13 -8 36 -14 51 -12 28 -12 28
-84 23 -40 -3 -65 -3 -56 0 16 5 20 16 34 97 l6 37 22 -22 c12 -13 28 -38 35
-55 20 -49 28 -40 23 26 -4 57 -3 59 24 69 26 9 27 11 6 11 -12 1 -34 -6 -47
-15 -14 -9 -32 -13 -45 -9 -14 4 -22 1 -27 -12 -9 -22 -43 -52 -61 -53 -10 0
-10 -5 -2 -20 7 -14 7 -20 0 -20 -5 0 -10 6 -10 14 0 16 -27 29 -42 20 -5 -3
-7 -13 -4 -23 4 -10 -1 -8 -13 7 -11 12 -25 22 -31 22 -8 0 -10 -9 -7 -22 5
-22 5 -22 -6 -3 -7 10 -27 33 -45 50 -19 16 -76 72 -129 123 -52 50 -99 92
-104 92 -13 0 -11 -24 3 -38 7 -7 9 -12 4 -12 -14 0 -37 30 -31 40 3 5 -3 18
-15 30 -11 11 -20 27 -20 35 0 11 -7 14 -22 10 -21 -5 -23 -2 -25 31 -3 64
-10 70 -42 35 -33 -35 -73 -41 -121 -16 -16 8 -50 15 -77 16 -32 1 -66 11
-102 30 -30 16 -63 29 -74 29 -10 0 -31 6 -45 14 -15 8 -92 40 -172 70 -148
57 -177 62 -288 49z m-405 -149 c-3 -3 -12 -4 -19 -1 -8 3 -5 6 6 6 11 1 17
-2 13 -5z m572 -90 c2 -2 2 -6 -1 -9 -8 -9 -58 6 -58 16 0 8 48 2 59 -7z
m1221 -538 c-1 -6 -16 18 -34 54 -19 36 -31 69 -28 74 5 9 62 -108 62 -128z
m356 -36 c8 0 14 7 14 15 0 8 5 15 10 15 6 0 10 -8 10 -19 0 -13 -9 -20 -30
-23 -34 -5 -45 5 -34 30 7 16 7 16 11 0 3 -10 11 -18 19 -18z m-1407 -281 c39
0 73 -4 76 -9 3 -5 12 -7 20 -4 8 3 24 -1 37 -10 12 -9 39 -16 59 -16 41 0 63
-19 53 -44 -6 -14 0 -17 37 -15 24 1 64 -3 89 -9 25 -7 80 -20 123 -29 43 -10
78 -22 77 -28 -1 -5 -8 -9 -17 -7 -8 2 -12 -1 -9 -7 4 -5 -1 -14 -10 -19 -13
-7 -12 -11 10 -26 15 -9 30 -14 35 -12 5 3 22 -1 39 -10 28 -13 30 -18 21 -41
-5 -14 -8 -26 -7 -27 2 -1 12 -8 22 -16 12 -9 17 -10 12 -3 -4 7 -3 20 2 29 6
11 11 13 16 5 13 -20 -5 -51 -32 -57 -39 -10 -52 -23 -52 -55 0 -18 -8 -34
-20 -41 -11 -7 -20 -21 -20 -30 0 -14 -9 -18 -41 -18 -35 0 -39 -2 -30 -14 9
-10 9 -16 1 -21 -6 -4 -10 -17 -9 -28 3 -38 -1 -43 -16 -17 l-13 25 -8 -30
c-11 -47 -20 -52 -73 -47 -43 4 -49 2 -54 -17 -5 -19 -1 -21 33 -21 27 0 42
-6 49 -17 8 -15 12 -16 22 -5 16 14 39 16 39 2 0 -5 -9 -10 -20 -10 -15 0 -20
-7 -20 -27 0 -69 18 -85 110 -99 56 -8 88 -23 71 -33 -9 -6 -8 -11 4 -21 8 -7
15 -18 15 -25 0 -7 8 -16 17 -19 15 -6 15 -9 3 -16 -9 -6 -23 -2 -39 10 -15
10 -42 25 -61 34 -70 33 -110 56 -110 64 0 6 -184 9 -235 3 l-20 -2 20 -9 c19
-8 19 -9 -1 -9 -34 -1 -152 -40 -220 -72 -38 -18 -83 -51 -115 -84 -50 -52
-56 -55 -104 -56 -27 0 -74 -4 -104 -8 -75 -11 -118 4 -169 60 -30 33 -56 50
-88 59 -30 9 -41 16 -32 21 10 6 9 9 -2 13 -41 13 -84 15 -103 4 -13 -6 -22
-7 -24 -1 -6 16 -138 -6 -225 -37 -45 -17 -85 -30 -89 -30 -11 0 -4 158 11
247 13 80 16 85 82 165 38 46 93 124 122 173 30 50 71 109 93 132 41 45 127
96 183 108 19 4 44 14 55 21 11 8 28 14 37 14 10 0 26 5 36 10 30 18 196 82
219 85 12 2 36 7 55 11 18 4 41 8 50 9 10 1 21 5 25 8 4 4 14 5 24 2 10 -3 49
-6 88 -6z m298 -75 c-3 -3 -12 -4 -19 -1 -8 3 -5 6 6 6 11 1 17 -2 13 -5z
m1658 -219 c-4 -41 -10 -63 -17 -59 -10 7 -4 107 8 126 13 20 16 -4 9 -67z
m-2771 53 c-4 -7 -14 -21 -22 -31 -16 -18 -32 -44 -54 -87 -7 -14 -28 -47 -47
-75 -28 -43 -32 -46 -26 -20 4 16 12 36 18 43 6 8 12 20 13 28 1 7 12 27 23
43 12 16 21 32 21 35 0 9 63 74 73 75 5 1 5 -5 1 -11z m-584 -11 c0 -7 -14
-32 -32 -54 -22 -29 -41 -43 -66 -48 -45 -8 -53 2 -22 27 14 11 25 25 26 32 0
6 2 17 2 24 1 6 15 12 31 12 17 0 33 5 36 10 9 14 25 12 25 -3z m10 -65 c0 -4
-15 -16 -32 -26 l-33 -19 24 26 c24 27 41 34 41 19z m407 -174 c-3 -8 -6 -5
-6 6 -1 11 2 17 5 13 3 -3 4 -12 1 -19z m-32 -38 c-3 -5 -11 -10 -16 -10 -6 0
-7 5 -4 10 3 6 11 10 16 10 6 0 7 -4 4 -10z m2784 -207 c5 -17 6 -46 2 -65
l-7 -33 -19 29 c-13 20 -20 49 -21 90 l-2 60 19 -24 c10 -14 23 -39 28 -57z
m231 -103 c0 -5 -4 -10 -10 -10 -5 0 -10 5 -10 10 0 6 5 10 10 10 6 0 10 -4
10 -10z m6 -57 c-10 -10 -19 5 -10 18 6 11 8 11 12 0 2 -7 1 -15 -2 -18z
m-2735 -98 c97 -25 178 -75 179 -109 0 -5 -9 3 -20 16 -22 29 -70 43 -70 22 0
-17 -24 -18 -50 -2 -10 7 -23 9 -27 5 -4 -5 -1 -12 7 -17 25 -15 3 -23 -58
-21 -25 1 -35 7 -45 28 -9 21 -9 27 1 31 20 6 3 22 -24 22 -24 0 -113 -35
-124 -49 -11 -13 -51 -31 -69 -31 -11 0 -22 6 -24 13 -12 28 -26 -20 -26 -88
0 -50 5 -75 16 -87 22 -24 12 -23 -34 5 -21 12 -51 27 -67 32 -16 6 -31 15
-33 21 -2 6 15 38 37 72 60 90 120 120 290 146 53 7 84 5 141 -9z m696 -38
c-21 -13 -52 -43 -68 -68 -21 -30 -28 -36 -23 -19 15 54 74 110 114 110 8 0
-2 -10 -23 -23z m-856 -127 c30 -6 82 -11 116 -12 36 0 67 -6 73 -13 7 -9 -2
-12 -40 -11 -28 1 -50 4 -50 9 0 4 -7 7 -15 7 -8 0 -15 -4 -15 -10 0 -5 5 -10
11 -10 5 0 7 -4 4 -10 -3 -5 -22 -10 -41 -10 -19 0 -51 -7 -72 -16 -87 -37
-82 -37 -82 0 0 31 31 86 49 86 5 0 33 -5 62 -10z m389 -48 c5 -20 10 -42 10
-47 0 -9 -98 -11 -107 -2 -13 14 62 101 79 91 4 -3 12 -21 18 -42z m-540 19
c0 -6 -4 -13 -10 -16 -5 -3 -10 1 -10 9 0 9 5 16 10 16 6 0 10 -4 10 -9z m777
-9 c14 -9 33 -56 33 -84 0 -11 -7 -35 -16 -54 -12 -25 -15 -51 -11 -92 5 -60
-5 -88 -33 -87 -8 0 -20 -9 -26 -20 -6 -11 -16 -19 -23 -17 -7 1 -10 -2 -6 -7
7 -12 -32 -34 -45 -26 -6 3 -10 0 -10 -7 0 -7 -5 -5 -12 6 -10 18 -12 17 -30
-15 -21 -38 -20 -30 17 91 15 49 28 121 31 170 9 155 7 150 67 150 29 0 57 -4
64 -8z m511 -37 c-10 -22 -6 -32 27 -81 l37 -57 -48 7 c-52 7 -104 34 -86 45
13 8 3 26 -17 32 -8 3 8 19 40 41 30 20 55 36 56 37 2 1 -3 -10 -9 -24z m117
-5 c3 -5 -1 -10 -9 -10 -9 0 -16 5 -16 10 0 6 4 10 9 10 6 0 13 -4 16 -10z
m-1699 -35 c3 -20 3 -39 0 -43 -9 -9 -36 9 -54 36 -13 20 -12 23 9 31 36 15
38 14 45 -24z m149 15 c3 -5 1 -10 -4 -10 -6 0 -11 5 -11 10 0 6 2 10 4 10 3
0 8 -4 11 -10z m2875 -10 c0 -5 9 -19 19 -29 19 -19 19 -20 -11 -26 -31 -7
-78 10 -78 28 0 6 3 8 6 5 3 -4 14 2 25 13 21 21 39 25 39 9z m-2774 -67 c7
-15 15 -53 18 -85 3 -31 10 -67 15 -80 9 -22 10 -22 10 7 1 17 -3 44 -8 61 -5
18 -5 37 0 45 7 12 9 12 9 0 0 -15 45 -61 59 -61 11 0 21 -26 21 -54 0 -22 3
-23 103 -25 l102 -2 39 40 c22 22 43 38 48 35 5 -3 18 2 29 12 10 9 22 14 26
11 3 -4 11 3 17 16 7 12 17 23 24 23 7 1 21 2 33 3 11 0 17 6 14 11 -4 6 -14
9 -23 8 -12 -2 -16 6 -18 30 -2 35 7 40 31 16 8 -9 23 -13 32 -10 14 6 15 -2
10 -66 -6 -82 -41 -193 -83 -264 -30 -51 -122 -125 -180 -144 -20 -7 -68 -10
-108 -8 -69 3 -76 6 -131 48 -69 53 -131 130 -156 191 -11 28 -23 43 -33 43
-9 -1 -16 4 -16 12 0 8 5 14 10 14 6 0 10 39 10 98 0 53 3 107 6 119 l6 22 37
-18 c20 -11 41 -32 47 -48z m1625 18 l16 -28 -51 -17 c-29 -9 -75 -18 -102
-21 l-49 -4 44 11 c30 8 57 25 80 49 20 21 38 38 41 39 3 0 12 -13 21 -29z
m24 19 c3 -5 2 -10 -4 -10 -5 0 -13 5 -16 10 -3 6 -2 10 4 10 5 0 13 -4 16
-10z m-1304 -13 c-1 -12 -15 -9 -19 4 -3 6 1 10 8 8 6 -3 11 -8 11 -12z m-130
-68 c6 -14 25 -33 42 -43 l32 -16 -39 5 c-55 9 -88 23 -81 36 4 6 13 8 21 5
11 -4 10 0 -2 20 -12 17 -20 22 -27 15 -13 -13 -27 -14 -27 -2 0 5 15 16 33
24 30 15 32 15 35 -1 2 -9 8 -29 13 -43z m1459 51 c0 -5 -5 -10 -11 -10 -5 0
-7 5 -4 10 3 6 8 10 11 10 2 0 4 -4 4 -10z m-1633 -32 c-3 -8 -6 -5 -6 6 -1
11 2 17 5 13 3 -3 4 -12 1 -19z m453 -8 c0 -5 -7 -10 -16 -10 -8 0 -12 5 -9
10 3 6 10 10 16 10 5 0 9 -4 9 -10z m-94 -65 c-11 -8 -27 -15 -35 -15 -10 1
-7 6 9 15 33 19 50 18 26 0z m821 3 c7 -5 11 -14 8 -18 -3 -5 4 -11 15 -15 11
-4 27 -20 36 -36 8 -16 26 -34 40 -39 21 -9 33 -5 69 21 24 17 50 29 58 26 8
-3 25 2 37 10 17 12 24 13 30 3 4 -7 12 -10 17 -7 5 3 27 2 48 -3 26 -6 44 -5
52 2 7 6 13 7 13 2 0 -5 4 -3 9 5 7 11 14 9 36 -15 17 -19 25 -23 21 -11 -3
10 -2 15 3 12 5 -3 12 3 14 12 2 10 2 3 0 -16 -6 -50 -46 -132 -84 -176 -35
-39 -138 -95 -174 -94 -18 0 -18 1 3 9 39 16 24 20 -55 15 -46 -2 -63 -1 -43
3 l35 7 -47 14 c-27 8 -62 11 -83 7 -31 -6 -43 -1 -102 40 -66 45 -67 45 -34
11 18 -20 60 -50 92 -67 65 -34 73 -43 31 -31 -71 21 -149 81 -212 164 -12 17
-12 17 13 6 15 -7 27 -19 27 -26 0 -8 5 -11 10 -8 7 5 8 11 1 18 -5 7 -8 28
-7 47 1 19 -2 41 -8 48 -5 7 -6 15 -2 19 3 3 26 -15 50 -40 32 -35 53 -48 80
-51 l36 -5 -16 24 c-9 14 -13 25 -8 25 5 0 -2 7 -14 16 -22 15 -30 30 -46 79
-5 16 -1 21 16 22 12 1 28 -3 35 -9z m-603 -233 c-9 -14 -12 -25 -8 -25 5 0 4
-4 -2 -8 -5 -4 -22 -23 -37 -43 -23 -30 -25 -38 -13 -42 9 -4 18 -2 21 2 7 12
101 6 117 -6 7 -6 23 -14 36 -17 12 -4 22 -14 22 -22 0 -8 7 -14 16 -14 10 0
14 -7 12 -21 -3 -19 -61 -47 -136 -66 -25 -6 -111 52 -112 75 0 30 -25 3 -27
-29 -3 -58 -13 -77 -44 -84 -16 -4 -29 -10 -29 -15 0 -5 -3 -17 -6 -27 -6 -16
-5 -16 9 2 12 15 16 16 17 5 0 -8 14 -29 32 -47 18 -18 27 -33 21 -33 -6 0
-13 -11 -15 -24 -5 -24 24 -52 42 -41 6 4 10 2 10 -2 0 -13 -92 -114 -98 -108
-3 3 3 11 13 19 11 8 14 15 7 20 -6 3 -23 -7 -39 -23 -33 -33 -102 -70 -119
-64 -12 4 -49 -65 -60 -114 -12 -48 -5 -109 18 -160 l21 -48 6 30 c7 34 40 46
61 20 8 -10 30 -15 66 -15 40 0 56 -4 64 -17 9 -17 11 -17 21 0 5 9 14 15 19
12 5 -3 11 -1 15 4 9 15 52 -8 58 -30 3 -13 11 -17 21 -13 9 3 14 10 11 14 -5
9 19 21 50 26 86 13 185 0 125 -17 -17 -5 -5 -7 37 -8 34 -1 63 2 65 7 4 10
78 43 78 35 0 -3 -8 -15 -17 -26 -17 -18 -17 -19 0 -28 44 -25 -7 -59 -83 -54
-19 1 -38 -2 -42 -8 -4 -8 -11 -7 -20 0 -13 11 -64 10 -75 -1 -3 -3 -21 1 -40
9 -48 20 -50 19 -23 -10 l23 -24 -27 -11 c-14 -5 -36 -19 -48 -30 -12 -11 -25
-20 -29 -20 -4 0 -10 -12 -14 -27 -5 -22 -1 -32 19 -49 26 -23 37 -24 168 -9
53 6 77 4 115 -10 46 -16 53 -17 99 -2 48 15 99 18 119 6 6 -4 32 -10 59 -14
63 -9 76 -14 76 -32 0 -8 -4 -11 -10 -8 -5 3 -16 3 -22 -2 -15 -9 27 -20 84
-22 32 -1 36 1 31 20 -6 20 -3 21 23 15 16 -4 37 -8 47 -9 9 -1 20 -9 23 -19
8 -25 -35 -98 -58 -98 -16 0 -23 -11 -19 -34 6 -32 -78 -47 -111 -18 -20 17
-40 8 -31 -14 7 -18 -13 -34 -42 -33 -11 0 -14 3 -7 6 17 7 15 23 -4 23 -9 0
-18 -9 -21 -20 -6 -24 -33 -27 -33 -4 0 13 -3 14 -14 5 -19 -16 -61 -17 -158
-7 -53 5 -78 4 -78 -3 0 -6 -6 -8 -14 -5 -8 3 -19 -3 -26 -15 -6 -12 -16 -21
-22 -21 -6 0 -25 -11 -43 -24 -36 -27 -77 -25 -111 5 -20 19 -21 19 -44 -1
-13 -11 -27 -20 -33 -20 -5 0 -4 -7 3 -15 9 -10 9 -15 1 -15 -6 0 -11 5 -11
10 0 6 -6 10 -13 10 -8 0 -22 9 -32 20 -22 25 -9 26 18 3 19 -17 20 -17 8 5
-6 12 -17 23 -24 24 -7 0 -16 2 -22 2 -32 5 -66 48 -126 160 -21 39 -43 71
-50 71 -7 0 -22 25 -34 55 -12 30 -35 82 -52 115 -17 33 -43 92 -58 130 -14
39 -38 99 -52 135 -13 36 -34 75 -44 86 -11 12 -22 36 -24 54 -2 17 -12 59
-21 93 -12 43 -18 109 -20 212 -1 83 -7 166 -13 185 -6 19 -11 48 -11 63 l0
29 40 -32 c59 -47 119 -62 237 -62 l103 0 72 42 c81 49 106 72 154 148 19 28
38 52 44 52 6 0 3 -11 -6 -25z m706 -65 c12 -8 11 -10 -7 -10 -13 0 -23 5 -23
10 0 13 11 13 30 0z m-167 -74 c-3 -5 0 -6 8 -4 8 3 27 -1 42 -9 16 -8 65 -21
109 -28 45 -8 82 -16 84 -18 2 -2 -8 -20 -22 -40 -21 -32 -23 -38 -9 -43 8 -3
15 -13 15 -21 0 -22 57 -75 77 -72 38 5 99 -15 128 -41 17 -15 37 -30 45 -34
61 -28 100 -70 100 -108 0 -13 4 -28 10 -34 6 -6 4 -23 -8 -47 -14 -30 -21
-36 -38 -32 -14 3 -24 -1 -28 -10 -3 -9 -18 -15 -35 -15 -25 0 -30 4 -33 28
-2 21 -8 27 -25 26 -13 0 -23 5 -23 13 0 7 -4 13 -10 13 -5 0 -10 -5 -10 -11
0 -8 -4 -8 -14 0 -10 8 -16 9 -21 1 -10 -16 -18 -13 -62 25 -22 19 -43 31 -47
28 -3 -3 -6 -1 -6 5 0 7 -9 12 -20 12 -10 0 -24 9 -30 19 -19 36 -72 66 -124
70 -5 1 -2 8 5 18 11 13 11 17 2 20 -7 3 -13 14 -13 24 0 11 -4 17 -10 14 -5
-3 -10 2 -10 12 0 10 -8 39 -17 65 -15 44 -16 49 -1 60 9 7 19 23 22 34 7 23
-13 34 -63 34 -23 0 -24 1 -6 14 17 12 17 13 -8 20 -18 4 -27 13 -27 27 0 11
5 17 10 14 6 -3 10 -2 10 4 0 6 13 3 29 -7 16 -9 27 -21 24 -26z m427 -10 c0
-2 -7 -7 -16 -10 -8 -3 -12 -2 -9 4 6 10 25 14 25 6z m913 -33 c-4 -10 -9 -20
-12 -23 -14 -12 -31 -52 -31 -72 0 -16 -3 -19 -11 -11 -13 13 0 54 29 101 17
26 34 30 25 5z m-1628 -323 c-3 -5 -10 -10 -16 -10 -5 0 -9 5 -9 10 0 6 7 10
16 10 8 0 12 -4 9 -10z m-21 -155 c20 -9 52 -16 71 -17 19 -1 35 -4 35 -8 0
-11 38 -22 90 -27 60 -6 76 -23 25 -25 -61 -2 -87 2 -123 19 -33 16 -39 15
-134 -11 -64 -17 -176 -20 -195 -4 -38 30 17 62 109 62 32 1 58 5 58 9 0 5 5
5 10 2 6 -3 10 -1 10 4 0 14 1 14 44 -4z m686 5 c0 -5 -2 -10 -4 -10 -3 0 -8
5 -11 10 -3 6 -1 10 4 10 6 0 11 -4 11 -10z m-1483 -142 c-3 -7 -5 -2 -5 12 0
14 2 19 5 13 2 -7 2 -19 0 -25z m403 -13 c0 -27 -5 -34 -25 -39 -14 -4 -33 -1
-43 5 -17 11 -16 14 17 44 20 19 39 31 43 29 5 -3 8 -20 8 -39z m914 -21 c9
-8 16 -18 16 -22 -1 -17 -30 -43 -47 -42 -36 4 -42 0 -38 -30 2 -17 -1 -30 -7
-30 -6 0 -8 13 -4 35 3 19 9 51 12 70 5 28 11 35 29 35 13 0 31 -7 39 -16z
m859 -33 c-2 -13 3 -21 13 -21 14 0 14 -2 0 -22 -9 -12 -16 -31 -16 -41 0 -14
-5 -17 -16 -13 -12 4 -15 2 -10 -9 5 -13 -25 -55 -39 -55 -11 0 -4 37 11 58
12 18 13 26 4 37 -15 18 -6 45 15 45 12 0 15 -6 10 -22 -7 -23 -7 -23 8 -3 8
11 12 22 9 25 -12 9 -9 51 2 47 6 -2 10 -14 9 -26z m-1598 -1 c7 -12 -12 -12
-40 0 -18 8 -17 9 7 9 15 1 30 -3 33 -9z m1321 -129 c-9 -14 4 -41 20 -41 17
0 13 -35 -5 -53 -11 -9 -14 -9 -18 1 -3 6 -15 12 -29 12 -24 0 -26 3 -38 78
-4 24 -2 32 9 32 8 0 15 -7 15 -15 0 -23 17 -18 24 8 6 20 7 21 17 4 5 -9 8
-21 5 -26z m-676 9 c0 -5 -4 -10 -10 -10 -5 0 -10 5 -10 10 0 6 5 10 10 10 6
0 10 -4 10 -10z m670 -126 c0 -8 5 -14 10 -14 14 0 13 -33 -2 -48 -8 -8 -17
-8 -30 -1 -14 7 -20 6 -24 -6 -12 -31 -22 -13 -22 38 l1 53 33 -4 c21 -3 34
-10 34 -18z m-637 -121 c-7 -2 -21 -2 -30 0 -10 3 -4 5 12 5 17 0 24 -2 18 -5z
m687 -207 c0 -3 -4 -8 -10 -11 -5 -3 -10 -1 -10 4 0 6 5 11 10 11 6 0 10 -2
10 -4z m-730 -20 c0 -9 -30 -14 -35 -6 -4 6 3 10 14 10 12 0 21 -2 21 -4z
m705 -28 c-4 -10 -15 -13 -31 -10 -30 6 -31 20 -1 31 26 10 40 1 32 -21z m916
-180 c22 -18 52 -69 45 -75 -3 -4 -23 -9 -43 -13 -30 -5 -42 -2 -55 14 -14 14
-15 22 -7 33 6 7 8 13 5 13 -4 0 -2 9 4 20 12 23 30 25 51 8z m-2328 -114 c-3
-8 -8 -14 -12 -14 -12 1 -42 50 -35 61 9 15 54 -29 47 -47z m2177 -8 c0 -2 -7
-7 -16 -10 -8 -3 -12 -2 -9 4 6 10 25 14 25 6z m40 -34 c0 -15 -2 -15 -10 -2
-13 20 -13 33 0 25 6 -3 10 -14 10 -23z m-17 -312 c17 -17 19 -23 8 -29 -8 -5
-11 -17 -7 -29 5 -14 1 -21 -13 -25 -13 -3 -21 1 -24 14 -3 12 0 19 9 19 8 0
14 7 14 15 0 8 -4 15 -10 15 -5 0 -10 9 -10 20 0 25 5 25 33 0z m123 -37 c-10
-10 -19 5 -10 18 6 11 8 11 12 0 2 -7 1 -15 -2 -18z m-1426 -193 c0 -5 -5 -10
-11 -10 -5 0 -7 5 -4 10 3 6 8 10 11 10 2 0 4 -4 4 -10z m198 -7 c-6 -7 -31
-13 -57 -13 -42 1 -44 2 -27 15 24 18 100 17 84 -2z"/>
<path d="M3140 4772 c0 -5 7 -13 16 -16 10 -4 14 -1 12 6 -5 15 -28 23 -28 10z"/>
<path d="M3107 4730 c-9 -11 -17 -24 -17 -29 0 -5 -11 -18 -25 -29 -14 -11
-25 -24 -25 -30 0 -18 91 -41 119 -30 24 9 25 10 8 23 -17 12 -17 13 1 17 25
7 38 57 20 73 -25 24 -63 26 -81 5z m-4 -87 c-7 -2 -19 -2 -25 0 -7 3 -2 5 12
5 14 0 19 -2 13 -5z"/>
<path d="M1850 3663 c0 -39 25 -133 35 -130 5 3 18 0 28 -5 17 -9 17 -8 -1 19
-11 15 -28 52 -37 81 -17 53 -25 65 -25 35z"/>
<path d="M2017 3433 c-4 -4 -38 -6 -75 -6 -63 1 -65 0 -29 -9 40 -11 123 -3
132 13 7 10 -18 13 -28 2z"/>
<path d="M2911 3754 c0 -11 3 -14 6 -6 3 7 2 16 -1 19 -3 4 -6 -2 -5 -13z"/>
<path d="M2965 2210 c3 -5 12 -10 20 -10 8 0 17 5 20 10 4 6 -5 10 -20 10 -15
0 -24 -4 -20 -10z"/>
<path d="M3420 3001 c0 -6 5 -13 10 -16 6 -3 10 1 10 9 0 9 -4 16 -10 16 -5 0
-10 -4 -10 -9z"/>
<path d="M1407 5881 c-4 -17 -3 -21 5 -13 5 5 8 16 6 23 -3 8 -7 3 -11 -10z"/>
<path d="M1115 5780 c-3 -5 -6 -67 -6 -137 0 -70 -1 -141 -1 -158 -1 -62 32
-213 47 -214 11 0 11 142 -1 199 -7 33 -7 34 -14 10 -6 -18 -8 -9 -7 30 1 73
-5 280 -9 280 -2 0 -5 -4 -9 -10z"/>
<path d="M4062 5668 c2 -6 10 -14 16 -16 7 -2 10 2 6 12 -7 18 -28 22 -22 4z"/>
<path d="M4375 5611 c-11 -5 -36 -7 -55 -5 -30 3 -32 3 -10 -5 37 -13 54 -13
76 4 21 16 19 17 -11 6z"/>
<path d="M4485 5584 c21 -15 49 -19 41 -5 -3 5 -18 11 -33 14 -26 5 -26 4 -8
-9z"/>
<path d="M1087 5298 c-3 -29 -11 -84 -18 -121 -9 -51 -9 -71 -1 -79 15 -15 24
-5 26 29 1 15 9 39 19 53 9 13 17 33 17 43 0 20 -29 127 -34 127 -2 0 -6 -24
-9 -52z"/>
<path d="M802 5198 c5 -15 28 -18 29 -3 0 6 -7 12 -17 13 -10 3 -15 -1 -12
-10z"/>
<path d="M983 5094 c-10 -21 -9 -24 7 -24 25 0 31 12 16 31 -10 15 -13 14 -23
-7z"/>
<path d="M900 4980 c0 -5 -7 -10 -16 -10 -21 0 -86 -31 -80 -38 3 -2 21 3 40
12 19 9 40 16 48 16 8 0 23 7 34 15 19 14 18 14 -3 15 -13 0 -23 -4 -23 -10z"/>
<path d="M4881 4928 c-1 -26 4 -50 9 -53 12 -8 12 52 0 80 -6 15 -9 8 -9 -27z"/>
<path d="M931 4759 c-18 -21 -29 -39 -25 -38 5 0 24 18 43 40 18 21 29 39 25
38 -5 0 -24 -18 -43 -40z"/>
<path d="M908 4683 c7 -3 16 -2 19 1 4 3 -2 6 -13 5 -11 0 -14 -3 -6 -6z"/>
<path d="M4531 4344 c0 -11 3 -14 6 -6 3 7 2 16 -1 19 -3 4 -6 -2 -5 -13z"/>
<path d="M4696 4262 c-3 -6 1 -15 8 -21 8 -7 17 -8 20 -3 3 6 -1 15 -8 21 -8
7 -17 8 -20 3z"/>
<path d="M4282 2200 c0 -14 2 -19 5 -12 2 6 2 18 0 25 -3 6 -5 1 -5 -13z"/>
<path d="M4069 2195 c-10 -15 -11 -285 -1 -285 5 0 11 39 14 88 6 92 -3 214
-13 197z"/>
<path d="M4299 2112 c5 -34 6 -35 9 -8 2 16 0 32 -5 37 -5 5 -7 -7 -4 -29z"/>
<path d="M4310 2019 c0 -19 4 -41 9 -48 6 -10 8 1 4 30 -7 55 -13 63 -13 18z"/>
<path d="M4850 1825 c0 -6 70 -36 90 -39 54 -8 90 -20 90 -31 0 -17 35 -29 73
-26 17 1 26 -3 22 -9 -3 -6 0 -7 9 -4 9 3 16 1 16 -5 0 -6 5 -11 11 -11 5 0 8
4 4 9 -3 5 13 8 37 6 24 -2 84 -6 133 -10 50 -3 126 -13 170 -21 132 -25 268
-53 310 -65 82 -22 107 -18 30 5 -135 41 -418 105 -460 104 -22 0 -65 2 -95 6
-30 3 -85 8 -122 12 -38 3 -68 10 -68 14 0 5 -26 14 -57 20 -32 6 -87 20 -122
31 -69 21 -71 21 -71 14z"/>
<path d="M4930 1760 c0 -5 4 -10 9 -10 6 0 13 5 16 10 3 6 -1 10 -9 10 -9 0
-16 -4 -16 -10z"/>
<path d="M1969 1620 c-31 -25 -13 -26 26 0 20 13 24 20 14 20 -9 0 -27 -9 -40
-20z"/>
<path d="M1730 1520 c-8 -5 -10 -10 -5 -10 6 0 17 5 25 10 8 5 11 10 5 10 -5
0 -17 -5 -25 -10z"/>
<path d="M6088 1503 c6 -2 18 -2 25 0 6 3 1 5 -13 5 -14 0 -19 -2 -12 -5z"/>
<path d="M6140 1494 c0 -7 52 -25 57 -20 2 2 -10 8 -26 14 -17 6 -31 9 -31 6z"/>
<path d="M1590 1468 c-45 -12 -67 -32 -25 -22 31 7 87 34 70 33 -5 -1 -26 -5
-45 -11z"/>
<path d="M6217 1459 c7 -7 15 -10 18 -7 3 3 -2 9 -12 12 -14 6 -15 5 -6 -5z"/>
<path d="M1470 1423 c-8 -2 -33 -13 -55 -23 -22 -10 -56 -24 -75 -31 -19 -7
-163 -75 -319 -151 -245 -121 -313 -156 -426 -226 -11 -6 -36 -21 -56 -31 -19
-11 -41 -27 -48 -35 -8 -9 -20 -16 -27 -16 -18 0 -194 -169 -194 -186 0 -6 -7
-15 -16 -18 -9 -4 -14 -9 -10 -13 3 -3 27 15 53 40 65 63 169 158 193 174 54
38 281 164 400 223 75 37 155 79 178 94 24 15 82 44 130 65 48 21 116 52 152
68 36 17 82 36 102 42 21 7 40 17 43 22 7 10 -1 10 -25 2z"/>
<path d="M3068 1203 c7 -3 16 -2 19 1 4 3 -2 6 -13 5 -11 0 -14 -3 -6 -6z"/>
<path d="M4885 1120 c3 -5 8 -10 11 -10 2 0 4 5 4 10 0 6 -5 10 -11 10 -5 0
-7 -4 -4 -10z"/>
<path d="M4755 1090 c3 -5 8 -10 11 -10 2 0 4 5 4 10 0 6 -5 10 -11 10 -5 0
-7 -4 -4 -10z"/>
<path d="M6391 864 c0 -11 3 -14 6 -6 3 7 2 16 -1 19 -3 4 -6 -2 -5 -13z"/>
<path d="M6350 820 c-7 -16 -10 -36 -6 -45 6 -17 36 -21 36 -5 0 6 -4 10 -8
10 -11 0 -12 39 -1 45 11 8 12 25 0 25 -5 0 -14 -13 -21 -30z"/>
<path d="M6350 729 c0 -5 5 -7 10 -4 6 3 10 8 10 11 0 2 -4 4 -10 4 -5 0 -10
-5 -10 -11z"/>
<path d="M197 648 c-37 -49 -84 -137 -113 -209 -32 -82 -87 -294 -81 -317 3
-14 5 -14 10 -2 15 40 57 188 57 202 0 15 22 70 58 148 9 19 17 37 17 40 3 14
51 109 68 133 28 40 14 45 -16 5z"/>
<path d="M3955 220 c-3 -5 -2 -10 4 -10 5 0 13 5 16 10 3 6 2 10 -4 10 -5 0
-13 -4 -16 -10z"/>
<path d="M3866 128 c5 -8 2 -9 -9 -5 -11 4 -17 1 -17 -8 0 -18 2 -18 35 -3 30
14 33 28 4 28 -13 0 -18 -4 -13 -12z"/>
<path d="M3680 80 c-8 -5 -10 -10 -5 -10 6 0 17 5 25 10 8 5 11 10 5 10 -5 0
-17 -5 -25 -10z"/>
<path d="M5911 74 c0 -11 3 -14 6 -6 3 7 2 16 -1 19 -3 4 -6 -2 -5 -13z"/>
<path d="M3805 70 c-3 -5 1 -10 10 -10 9 0 13 5 10 10 -3 6 -8 10 -10 10 -2 0
-7 -4 -10 -10z"/>
<path d="M3760 40 c0 -5 -8 -10 -17 -10 -10 0 -27 -7 -37 -15 -19 -14 -19 -15
7 -15 30 0 94 49 65 50 -10 0 -18 -4 -18 -10z"/>
</g>
</svg>
